<svg width="273" height="260" viewBox="0 0 273 260" fill="none" xmlns="http://www.w3.org/2000/svg">
<path fill-rule="evenodd" clip-rule="evenodd" d="M121.081 1.28841C157.793 0.49307 197.112 -5.50039 225.815 17.4499C256.879 42.2885 276.253 82.7498 272.548 122.4C269.05 159.821 235.665 184.131 207.877 209.375C182.094 232.797 155.882 259.928 121.081 260C86.2351 260.071 56.7929 236.081 33.9281 209.732C12.7982 185.382 3.93026 154.589 1.67707 122.4C-0.798591 87.0325 -4.0865 47.1135 20.7795 21.8919C45.7145 -3.39967 85.6097 2.05686 121.081 1.28841Z" fill="#F9F9FB"/>
<path d="M191.677 90.0859H187.603V117.42H191.677V90.0859Z" fill="#3F3D56"/>
<path d="M191.688 89.7403L191.54 90.0868L190.153 93.3071L187.603 92.328L183.936 90.9229C161.177 84.0198 132.413 80.4874 121.457 66.9595L120.743 66.6861C116.158 70.281 112.974 70.4912 112.726 63.6088L112.013 63.3354C93.3134 66.9686 77.1417 56.5939 61.3854 43.918C62.4855 42.9389 63.6058 41.9852 64.7496 41.0537C86.9012 41.6406 105.791 45.2724 113.191 59.6319L113.907 59.9084L122.516 63.2082L123.236 63.4848C142.359 59.6742 163.843 73.4099 185.349 87.3083L191.688 89.7403V89.7403Z" fill="#3F3D56"/>
<path d="M224.451 179.201C220.973 183.759 217.107 188.038 212.902 191.99C164.441 192.883 106.042 192.772 58.8253 191.736C54.758 187.883 51.0103 183.728 47.6293 179.306C57.4359 179.048 67.8514 178.845 78.6539 178.686C82.9298 178.619 87.2696 178.565 91.6565 178.514C96.0131 178.47 100.417 178.428 104.854 178.393H104.858C145.178 178.085 188.307 178.368 224.451 179.201Z" fill="#D0CDE1"/>
<path d="M241.457 145.141C240.367 149.089 239.032 152.942 237.471 156.69C237.259 157.205 237.04 157.717 236.815 158.229H231.604V145.141H241.457V145.141Z" fill="#3F3D56"/>
<path d="M237.471 156.69C237.259 157.205 237.04 157.717 236.815 158.229C236.26 159.504 235.678 160.766 235.069 162.012C234.746 162.68 234.413 163.344 234.07 164.005C232.788 166.501 231.399 168.942 229.908 171.32C177.837 177.053 129.648 178.427 89.0089 171.32V156.69H237.471V156.69Z" fill="#3F3D56"/>
<path d="M235.069 139.295V162.012C234.746 162.679 234.413 163.344 234.07 164.005C219.281 157.182 205.761 157.996 193.104 164.005V114.149C203.35 108.36 213.772 107.408 224.475 114.149L234.309 137.486L235.069 139.295V139.295Z" fill="#D0CDE1"/>
<path d="M199.622 117.228H217.549V134.168C211.638 137.151 205.661 137.088 199.622 134.168C196.508 128.521 196.508 122.875 199.622 117.228V117.228Z" fill="white"/>
<path d="M230.993 134.361C228.637 136.867 224.317 135.97 219.586 134.361V117.421H224.475L230.993 134.361V134.361Z" fill="white"/>
<path d="M204.511 143.792H200.437V151.107H204.511V143.792Z" fill="#3F3D56"/>
<path d="M223.049 128.2H223.252C225.39 128.2 227.123 129.838 227.123 131.858V131.858C227.123 133.878 225.39 135.515 223.252 135.515H223.049V128.2V128.2Z" fill="#3F3D56"/>
<path d="M71.4886 156.69H71.6923C73.8299 156.69 75.5628 158.327 75.5628 160.347V160.347C75.5628 162.367 73.8299 164.005 71.6923 164.005H71.4886V156.69V156.69Z" fill="#3F3D56"/>
<path d="M242.924 139.094C242.5 141.132 242.009 143.148 241.457 145.141C240.367 149.089 239.032 152.942 237.471 156.69C237.259 157.205 237.04 157.717 236.815 158.229C236.26 159.504 235.678 160.766 235.069 162.012C234.746 162.679 234.413 163.344 234.07 164.005H232.216L231.997 158.229L231.94 156.69L231.604 147.729L231.197 136.907L234.309 137.486L242.924 139.094V139.094Z" fill="#D0CDE1"/>
<path d="M91.6559 185.372C100.206 185.372 107.138 178.822 107.138 170.742C107.138 162.662 100.206 156.112 91.6559 156.112C83.1054 156.112 76.1739 162.662 76.1739 170.742C76.1739 178.822 83.1054 185.372 91.6559 185.372Z" fill="#3F3D56"/>
<path d="M91.6559 178.442C96.1561 178.442 99.8043 174.995 99.8043 170.742C99.8043 166.49 96.1561 163.042 91.6559 163.042C87.1556 163.042 83.5075 166.49 83.5075 170.742C83.5075 174.995 87.1556 178.442 91.6559 178.442Z" fill="#D0CDE1"/>
<path d="M194.326 154.957H194.326V107.218H185.77C184.072 110.242 183.211 114.839 182.904 120.482C181.855 139.767 165.145 154.957 144.71 154.957H71.2849V158.422H185.042C185.283 160.794 185.528 163.173 185.77 165.545L194.326 165.545V158.422H194.326V154.957Z" fill="#3F3D56"/>
<path d="M128.166 138.976L130.464 137.38L144.58 155.531L142.282 157.127C131.681 155.891 127.025 149.8 128.166 138.976V138.976Z" fill="#3F3D56"/>
<path d="M151.689 77.6035L154.294 78.6987L126.104 157.138L123.498 156.043C126.992 134.548 137.726 95.2219 151.689 77.6035V77.6035Z" fill="#3F3D56"/>
<path d="M225.493 135.13H221.419V136.67H225.493V135.13Z" fill="#3F3D56"/>
<path d="M188.901 112.523C188.903 112.494 188.904 112.468 188.899 112.442C188.875 112.228 188.674 112.077 188.451 112.101L185.825 112.38L93.5815 115.531L92.7656 115.616C92.5878 115.634 92.4441 115.762 92.4121 115.931C92.3724 116.14 92.5191 116.34 92.741 116.377L186.929 127.472C187.154 127.493 187.351 127.336 187.375 127.124L188.901 112.523ZM95.643 116.087L185.675 113.169L188.04 112.92L186.606 126.635L95.643 116.087Z" fill="#3F3D56"/>
<path d="M122.516 63.2082L120.743 66.6861L96.7163 113.755L112.727 63.6088L113.907 59.9084L113.191 59.6318L112.013 63.3354L95.4951 115.42L95.3202 116.177C95.2797 116.342 95.3605 116.511 95.522 116.593C95.7171 116.698 95.966 116.632 96.0737 116.444L121.457 66.9595L123.236 63.4848L122.516 63.2082V63.2082Z" fill="#3F3D56"/>
<path d="M44.0834 116.498L42.9026 105.966L42.5796 103.064L40.911 88.1606L39.8984 79.1036C39.8782 78.9097 39.7032 78.7603 39.4946 78.7603C39.2861 78.7603 39.1111 78.9065 39.0876 79.1004L37.9875 88.1606L35.9689 104.819L35.5956 107.899L34.5157 116.8L33.0118 129.208C33.0085 129.221 33.0085 129.233 33.0085 129.249C33.0051 129.459 33.1868 129.634 33.4122 129.637L38.3104 129.682L45.1095 129.742H45.1129C45.1263 129.742 45.1397 129.739 45.1532 129.739C45.3786 129.717 45.5401 129.526 45.5166 129.316L44.0834 116.498H44.0834ZM40.0531 128.925L38.1052 128.909L33.873 128.871L35.0977 118.768V118.765L36.4433 107.677L36.8167 104.593L38.8117 88.1606L39.4778 82.6609L40.0934 88.1606L41.7856 103.274L42.1086 106.176L43.2861 116.708L44.6587 128.966L40.0531 128.925H40.0531Z" fill="#3F3D56"/>
<path d="M104.39 131.707L102.197 132.838L95.929 134.495L90.6742 135.887L79.2628 138.904L74.0079 140.293C57.6753 137.761 49.428 143.091 41.6309 148.857L36.376 150.247L32.4635 151.283C31.757 149.261 31.1144 147.214 30.5425 145.138C30.0783 143.466 29.6577 141.775 29.2843 140.071C27.9252 133.9 27.1514 127.529 27.0236 121.009C27.0067 120.342 27 119.671 27 119C27 115.99 27.1379 113.011 27.4037 110.067C27.4979 109.043 27.6056 108.023 27.73 107.009L35.9689 104.819L36.8167 104.593L41.7856 103.274L42.5796 103.064L55.192 99.7099C64.8885 99.0627 72.2751 103.042 78.5664 109.215C78.5664 109.215 87.5219 106.688 94.1124 111.148C96.1982 112.563 98.0451 114.677 99.2966 117.795L100.377 120.736L104.39 131.707H104.39Z" fill="#666666"/>
<path d="M84.6914 147.254C91.0024 147.254 96.1184 142.419 96.1184 136.456C96.1184 130.492 91.0024 125.658 84.6914 125.658C78.3804 125.658 73.2643 130.492 73.2643 136.456C73.2643 142.419 78.3804 147.254 84.6914 147.254Z" fill="#3F3D56"/>
<path d="M84.6914 142.139C88.0129 142.139 90.7056 139.595 90.7056 136.456C90.7056 133.317 88.0129 130.773 84.6914 130.773C81.3698 130.773 78.6771 133.317 78.6771 136.456C78.6771 139.595 81.3698 142.139 84.6914 142.139Z" fill="#D0CDE1"/>
<path d="M41.8193 150.819C41.8193 154.392 39.9825 157.558 37.1498 159.523C36.8033 159.764 36.44 159.987 36.0665 160.19C36.0093 160.073 35.9589 159.958 35.905 159.841C35.2288 158.369 34.593 156.878 33.9908 155.371C33.4525 154.023 32.9411 152.659 32.4635 151.283C31.757 149.261 31.1144 147.214 30.5425 145.138C30.0782 143.466 29.6577 141.774 29.2843 140.07C29.6476 140.035 30.0177 140.02 30.3911 140.02C35.9925 140.02 40.6553 143.828 41.6309 148.857C41.7554 149.493 41.8193 150.148 41.8193 150.819V150.819Z" fill="#3F3D56"/>
<path d="M36.4063 150.819C36.4063 152.682 35.4576 154.335 33.9908 155.371C33.4525 154.023 32.9411 152.659 32.4635 151.283C31.757 149.261 31.1144 147.214 30.5425 145.138C33.5938 145.208 36.0766 147.42 36.376 150.246C36.3962 150.434 36.4063 150.625 36.4063 150.819H36.4063Z" fill="#D0CDE1"/>
<path d="M70.4865 109.515L35.1288 118.867L32.1498 108.81C36.6017 105.524 45.361 104.062 54.6993 102.845L70.4865 109.515V109.515Z" fill="white"/>
<path d="M30.7982 120.011L27.0236 121.009C27.0067 120.341 27 119.671 27 119C27 115.989 27.1379 113.011 27.4037 110.067L27.8208 109.956C31.5083 112.242 32.4405 115.617 30.7982 120.011V120.011Z" fill="white"/>
<path d="M39.1546 125.891L37.3506 126.368L38.31 129.607L40.1139 129.129L39.1546 125.891Z" fill="#3F3D56"/>
<path d="M100.375 120.736C97.2721 121.91 93.7499 120.484 92.508 117.552C91.5592 115.312 92.2006 112.749 94.1113 111.148C96.1971 112.562 98.0467 114.675 99.2976 117.795L100.375 120.736H100.375Z" fill="#3F3D56"/>
<path d="M37.2642 75.3075C38.519 72.7802 39.8781 70.3101 41.3382 67.9004V88.1602H37.2642V75.3075V75.3075Z" fill="#3F3D56"/>
<path d="M189.64 96.2461C192.791 96.2461 195.344 93.833 195.344 90.8562C195.344 87.8794 192.791 85.4663 189.64 85.4663C186.49 85.4663 183.936 87.8794 183.936 90.8562C183.936 93.833 186.49 96.2461 189.64 96.2461Z" fill="#3F3D56"/>
</svg>
